<?xml version="1.0" encoding="UTF-8" standalone="no"?>
<!-- Created with Inkscape (http://www.inkscape.org/) -->

<svg
   version="1.1"
   id="svg1"
   width="512"
   height="511.99997"
   viewBox="0 0 512 511.99997"
   sodipodi:docname="upload_m3aas53hluvnw55dzeze3y3i3x.pdf"
   xmlns:inkscape="http://www.inkscape.org/namespaces/inkscape"
   xmlns:sodipodi="http://sodipodi.sourceforge.net/DTD/sodipodi-0.dtd"
   xmlns="http://www.w3.org/2000/svg"
   xmlns:svg="http://www.w3.org/2000/svg">
  <defs
     id="defs1">
    <clipPath
       clipPathUnits="userSpaceOnUse"
       id="clipPath6">
      <path
         d="M 0,0 H 1600 V 1600 H 0 Z"
         transform="scale(0.16)"
         id="path6" />
    </clipPath>
    <clipPath
       clipPathUnits="userSpaceOnUse"
       id="clipPath7">
      <path
         d="M 0,0 H 1600 V 1600 H 0 Z"
         transform="matrix(0.31999999,0,0,0.31999999,0,10.559993)"
         id="path7" />
    </clipPath>
    <clipPath
       clipPathUnits="userSpaceOnUse"
       id="clipPath10">
      <path
         d="M 0,0 H 1600 V 1600 H 0 Z"
         transform="matrix(0.31999999,0,0,0.31999999,0,10.559993)"
         id="path10" />
    </clipPath>
    <clipPath
       clipPathUnits="userSpaceOnUse"
       id="clipPath15">
      <path
         d="M 0,0 H 322 V 1142 H 0 Z"
         transform="matrix(0.7993582,0,0,0.7993582,-0.6485174,-0.66815254)"
         id="path15" />
    </clipPath>
    <clipPath
       clipPathUnits="userSpaceOnUse"
       id="clipPath21">
      <path
         d="M 0,0 H 816 V 776 H 0 Z"
         transform="matrix(0.33032524,0,0,0.33032524,-0.26799208,-0.27610606)"
         id="path21" />
    </clipPath>
    <clipPath
       clipPathUnits="userSpaceOnUse"
       id="clipPath27">
      <path
         d="M 0,0 H 400 V 552 H 0 Z"
         transform="matrix(0.64013777,0,0,0.64013777,-0.04368842,-0.19748659)"
         id="path27" />
    </clipPath>
    <clipPath
       clipPathUnits="userSpaceOnUse"
       id="clipPath38">
      <path
         d="M 0,0 H 329 V 11 H 0 Z"
         transform="matrix(0.31999999,0,0,0.31999999,-0.13458995,-0.20648569)"
         id="path38" />
    </clipPath>
  </defs>
  <sodipodi:namedview
     id="namedview1"
     pagecolor="#ffffff"
     bordercolor="#000000"
     borderopacity="0.25"
     inkscape:showpageshadow="2"
     inkscape:pageopacity="0.0"
     inkscape:pagecheckerboard="0"
     inkscape:deskcolor="#d1d1d1">
    <inkscape:page
       x="0"
       y="0"
       inkscape:label="1"
       id="page1"
       width="512"
       height="511.99997"
       margin="0"
       bleed="0" />
  </sodipodi:namedview>
  <g
     id="g1"
     inkscape:groupmode="layer"
     inkscape:label="1">
    <g
       id="g2" />
    <g
       id="g3">
      <path
         id="path3"
         d="M 0,0 H 512 V 512 H 0 Z"
         style="fill:#ffffff;fill-opacity:1;fill-rule:nonzero;stroke:none"
         transform="translate(0,10.559993)" />
    </g>
    <g
       id="g4" />
    <g
       id="g5">
      <path
         id="path5"
         d="M 0,0 H 512 V 512 H 0 Z"
         style="fill:#ffffff;fill-opacity:1;fill-rule:nonzero;stroke:none"
         transform="translate(0,10.559993)" />
      <g
         id="g10"
         clip-path="url(#clipPath10)">
        <g
           clip-path="url(#clipPath7)"
           id="g9">
          <g
             id="g7" />
          <g
             opacity="1"
             id="g8">
            <path
               d="M 0,0 H 256 V 256 H 0 Z"
               style="fill:#10b981;fill-opacity:1;fill-rule:nonzero;stroke:none"
               transform="matrix(1.9999999,0,0,1.9999999,0,10.559993)"
               clip-path="url(#clipPath6)"
               id="path8" />
          </g>
        </g>
      </g>
    </g>
    <g
       id="g11" />
    <g
       id="g12" />
    <g
       id="g13" />
    <g
       id="g14" />
    <g
       id="g15">
      <g
         id="g16">
        <path
           d="M 0,0 H 256 V 912 H 0 Z"
           style="fill:#ffffff;fill-opacity:1;fill-rule:nonzero;stroke:none"
           transform="matrix(0.40032114,0,0,0.40032114,125.69961,85.707465)"
           clip-path="url(#clipPath15)"
           id="path16" />
      </g>
    </g>
    <g
       id="g17" />
    <g
       id="g18" />
    <g
       id="g19" />
    <g
       id="g20" />
    <g
       id="g21">
      <g
         id="g22">
        <path
           d="M 0,0 H 269 V 256 H 0 Z"
           style="fill:#ffffff;fill-opacity:1;fill-rule:nonzero;stroke:none"
           transform="matrix(0.96874217,0,0,0.96874217,125.69961,85.707465)"
           clip-path="url(#clipPath21)"
           id="path22" />
      </g>
    </g>
    <g
       id="g23" />
    <g
       id="g24" />
    <g
       id="g25" />
    <g
       id="g26" />
    <g
       id="g27">
      <g
         id="g28">
        <path
           d="M 0,0 H 256 V 353 H 0 Z"
           style="fill:#10b981;fill-opacity:1;fill-rule:nonzero;stroke:none"
           transform="matrix(0.49989237,0,0,0.49989237,228.18183,120.41871)"
           clip-path="url(#clipPath27)"
           id="path28" />
      </g>
    </g>
    <g
       id="g29" />
    <g
       id="g30">
      <path
         id="path30"
         d="M 2,2 H 16.665642"
         style="fill:none;stroke:#ffffff;stroke-width:4;stroke-linecap:butt;stroke-linejoin:miter;stroke-miterlimit:10;stroke-dasharray:none;stroke-opacity:1"
         transform="rotate(-90,192.34342,-44.506458)" />
    </g>
    <g
       id="g31">
      <path
         id="path31"
         d="M 2,2 H 16.665642"
         style="fill:none;stroke:#ffffff;stroke-width:4;stroke-linecap:butt;stroke-linejoin:miter;stroke-miterlimit:10;stroke-dasharray:none;stroke-opacity:1"
         transform="rotate(180,127.9953,66.588003)" />
    </g>
    <g
       id="g32">
      <path
         id="path32"
         d="M 2,2 H 16.665642"
         style="fill:none;stroke:#ffffff;stroke-width:4;stroke-linecap:butt;stroke-linejoin:miter;stroke-miterlimit:10;stroke-dasharray:none;stroke-opacity:1"
         transform="rotate(180,173.90082,66.588003)" />
    </g>
    <g
       id="g33">
      <path
         id="path33"
         d="M 2,2 H 16.665642"
         style="fill:none;stroke:#ffffff;stroke-width:4;stroke-linecap:butt;stroke-linejoin:miter;stroke-miterlimit:10;stroke-dasharray:none;stroke-opacity:1"
         transform="rotate(-90,245.82164,-97.98468)" />
    </g>
    <g
       id="g34">
      <path
         id="path34"
         d="M 2,2 H 16.665642"
         style="fill:none;stroke:#ffffff;stroke-width:4;stroke-linecap:butt;stroke-linejoin:miter;stroke-miterlimit:10;stroke-dasharray:none;stroke-opacity:1"
         transform="rotate(-90,261.11073,25.781076)" />
    </g>
    <g
       id="g35">
      <path
         id="path35"
         d="M 2,2 H 16.665642"
         style="fill:none;stroke:#ffffff;stroke-width:4;stroke-linecap:butt;stroke-linejoin:miter;stroke-miterlimit:10;stroke-dasharray:none;stroke-opacity:1"
         transform="rotate(180,126.97588,143.44826)" />
    </g>
    <g
       id="g36">
      <path
         id="path36"
         d="M 2,2 H 16.665642"
         style="fill:none;stroke:#ffffff;stroke-width:4;stroke-linecap:butt;stroke-linejoin:miter;stroke-miterlimit:10;stroke-dasharray:none;stroke-opacity:1"
         transform="rotate(-90,314.51363,-29.292683)" />
    </g>
    <g
       id="g37">
      <path
         id="path37"
         d="M 2,2 H 16.665642"
         style="fill:none;stroke:#ffffff;stroke-width:4;stroke-linecap:butt;stroke-linejoin:miter;stroke-miterlimit:10;stroke-dasharray:none;stroke-opacity:1"
         transform="rotate(180,173.90082,142.61282)" />
    </g>
    <g
       id="g38">
      <g
         opacity="0.6"
         id="g39">
        <path
           d="M 1.5,1.5 H 103.47878"
           style="fill:none;stroke:#ffffff;stroke-width:3;stroke-linecap:butt;stroke-linejoin:miter;stroke-miterlimit:10;stroke-dasharray:none;stroke-opacity:1"
           transform="translate(238.85458,208.20647)"
           clip-path="url(#clipPath38)"
           id="path39" />
      </g>
    </g>
    <g
       id="g40">
      <path
         id="path40"
         d="M 0,7.9199944 H 384 V 391.91999 H 0 Z"
         style="fill:#000000;fill-opacity:0;fill-rule:nonzero;stroke:none"
         transform="matrix(1.3333333,0,0,-1.3333333,0,533.11997)" />
    </g>
    <g
       id="g41">
      <path
         id="path41"
         d="M 94.27472,149.56087 H 289.72528 V 335.55939 H 94.27472 Z"
         style="fill:#000000;fill-opacity:0;fill-rule:nonzero;stroke:none"
         transform="matrix(1.3333333,0,0,-1.3333333,0,533.11997)" />
    </g>
    <g
       id="g42">
      <path
         id="path42"
         d="m 171.13638,177.13441 h 95.97934 v 132.39154 h -95.97934 z"
         style="fill:#000000;fill-opacity:0;fill-rule:nonzero;stroke:none"
         transform="matrix(1.3333333,0,0,-1.3333333,0,533.11997)" />
    </g>
    <g
       id="g43">
      <path
         id="path43"
         d="m 177.64093,288.95874 h 3 v 13.99923 h -3 z"
         style="fill:#000000;fill-opacity:0;fill-rule:nonzero;stroke:none"
         transform="matrix(1.3333333,0,0,-1.3333333,0,533.11997)" />
    </g>
    <g
       id="g44">
      <path
         id="path44"
         d="m 178.00076,299.95798 h 13.99923 v 3 h -13.99923 z"
         style="fill:#000000;fill-opacity:0;fill-rule:nonzero;stroke:none"
         transform="matrix(1.3333333,0,0,-1.3333333,0,533.11997)" />
    </g>
    <g
       id="g45">
      <path
         id="path45"
         d="m 246.85904,299.95798 h 13.99923 v 3 h -13.99923 z"
         style="fill:#000000;fill-opacity:0;fill-rule:nonzero;stroke:none"
         transform="matrix(1.3333333,0,0,-1.3333333,0,533.11997)" />
    </g>
    <g
       id="g46">
      <path
         id="path46"
         d="m 257.85828,288.95874 h 3 v 13.99923 h -3 z"
         style="fill:#000000;fill-opacity:0;fill-rule:nonzero;stroke:none"
         transform="matrix(1.3333333,0,0,-1.3333333,0,533.11997)" />
    </g>
    <g
       id="g47">
      <path
         id="path47"
         d="m 179.14093,241.43513 h 78.73409 v 2.25 h -78.73409 z"
         style="fill:#000000;fill-opacity:0;fill-rule:nonzero;stroke:none"
         transform="matrix(1.3333333,0,0,-1.3333333,0,533.11997)" />
    </g>
    <g
       id="g48">
      <path
         id="path48"
         d="m 176.50076,184.6676 h 3 v 13.99923 h -3 z"
         style="fill:#000000;fill-opacity:0;fill-rule:nonzero;stroke:none"
         transform="matrix(1.3333333,0,0,-1.3333333,0,533.11997)" />
    </g>
    <g
       id="g49">
      <path
         id="path49"
         d="m 176.47165,184.6676 h 13.99923 v 3 h -13.99923 z"
         style="fill:#000000;fill-opacity:0;fill-rule:nonzero;stroke:none"
         transform="matrix(1.3333333,0,0,-1.3333333,0,533.11997)" />
    </g>
    <g
       id="g50">
      <path
         id="path50"
         d="m 257.85828,185.92076 h 3 v 13.99923 h -3 z"
         style="fill:#000000;fill-opacity:0;fill-rule:nonzero;stroke:none"
         transform="matrix(1.3333333,0,0,-1.3333333,0,533.11997)" />
    </g>
    <g
       id="g51">
      <path
         id="path51"
         d="m 246.85904,185.92076 h 13.99923 v 3 h -13.99923 z"
         style="fill:#000000;fill-opacity:0;fill-rule:nonzero;stroke:none"
         transform="matrix(1.3333333,0,0,-1.3333333,0,533.11997)" />
    </g>
    <g
       id="g52">
      <path
         id="path52"
         d="m 94.27472,61.77428 h 76.86166 v 273.7851 H 94.27472 Z"
         style="fill:#000000;fill-opacity:0;fill-rule:nonzero;stroke:none"
         transform="matrix(1.3333333,0,0,-1.3333333,0,533.11997)" />
    </g>
  </g>
</svg>
